<?xml version="1.0" encoding="iso-8859-1"?>
<!-- Uploaded to: SVG Repo, www.svgrepo.com, Generator: SVG Repo Mixer Tools -->
<svg fill="#000000" version="1.1" id="Capa_1" xmlns="http://www.w3.org/2000/svg" xmlns:xlink="http://www.w3.org/1999/xlink" 
	 viewBox="0 0 60 60" xml:space="preserve">
<g>
	<g>
		<rect x="51.35" y="45" width="2" height="15"/>
		<path d="M5.35,46V24.1c0-12,10.1-22.1,22-22.1V0c-13,0-24,11-24,24.1V47c0,0.6,0.4,1,1,1h21v12h2V48h4v-2h-5H5.35z"/>
		<path d="M13.35,23v8c0,0.6,0.4,1,1,1h4v-2h-3v-7H13.35z"/>
		<path d="M52.65,18c0-6.6-5.4-12-12-12h-0.3c-6.6,0.2-11.7,5.5-11.7,12c0,6.6,5.4,12,12,12C47.25,30,52.65,24.6,52.65,18z
			 M30.65,18c0-5.4,4.3-9.8,9.7-10h0.3c5.5,0,10,4.5,10,10s-4.5,10-10,10S30.65,23.5,30.65,18z"/>
		<path d="M46.35,39h-2v-5.4c7.2-1.7,12.3-8.1,12.3-15.6c0-8.8-7.2-16-16-16s-16,7.2-16,16c0,7.6,5.3,14.1,12.7,15.6V39h-2
			c-0.6,0-1,0.4-1,1v13c0,0.6,0.4,1,1,1h2v3c0,0.6,0.4,1,1,1h5c0.6,0,1-0.4,1-1v-3h2c0.6,0,1-0.4,1-1V40
			C47.35,39.4,46.95,39,46.35,39z M38.55,31.8c-6.9-1-11.9-6.8-11.9-13.8c0-7.7,6.3-14,14-14s14,6.3,14,14c0,6.8-4.8,12.6-11.5,13.8
			c-0.5,0.1-0.8,0.5-0.8,1V39h-3v-6.2C39.35,32.3,39.05,31.9,38.55,31.8z M42.35,56h-3v-2h3V56z M45.35,52h-2h-5h-2v-2h5v-2h-5v-3h5
			v-2h-5v-2h2h5h2V52z"/>
		<rect x="36.35" y="17" width="9" height="2"/>
		<rect x="36.35" y="13" width="9" height="2"/>
		<rect x="36.35" y="21" width="9" height="2"/>
	</g>
</g>
</svg>