<?xml version="1.0" ?>
<!-- Uploaded to: SVG Repo, www.svgrepo.com, Generator: SVG Repo Mixer Tools -->
<svg fill="#000000" width="800px" height="800px" viewBox="0 0 32 32" xmlns="http://www.w3.org/2000/svg">
<g data-name="31. Saving Book" id="_31._Saving_Book">
<path d="M31,4H1A1,1,0,0,0,0,5V24a4,4,0,0,0,4,4H28a4,4,0,0,0,4-4V5A1,1,0,0,0,31,4ZM30,6V22H2V6ZM28,26H4a2,2,0,0,1-2-2H30A2,2,0,0,1,28,26Z"/>
<path d="M7,17H5a1,1,0,0,0,0,2H6a1,1,0,0,0,2,0v-.18A3,3,0,0,0,7,13a1,1,0,0,1,0-2H9A1,1,0,0,0,9,9H8A1,1,0,0,0,6,9v.18A3,3,0,0,0,7,15a1,1,0,0,1,0,2Z"/>
<path d="M16,11h8a1,1,0,0,0,0-2H16a1,1,0,0,0,0,2Z"/>
<path d="M16,15h4a1,1,0,0,0,0-2H16a1,1,0,0,0,0,2Z"/>
</g>
</svg>