<?xml version="1.0" encoding="iso-8859-1"?>
<!-- Generator: Adobe Illustrator 19.1.0, SVG Export Plug-In . SVG Version: 6.00 Build 0)  -->
<svg version="1.1" id="Capa_1" xmlns="http://www.w3.org/2000/svg" xmlns:xlink="http://www.w3.org/1999/xlink" x="0px" y="0px"
	 viewBox="0 0 470.543 470.543" style="enable-background:new 0 0 470.543 470.543;" xml:space="preserve">
<g>
	<g>
		<path d="M359.324,171.107c-12.833-62.026-68.443-106.942-134.746-106.942c-76.998,0-139.024,62.026-139.024,139.024
			c0,4.278,0,6.416,0,10.694C38.499,220.3,0,260.938,0,310.131c0,53.471,42.777,96.247,96.247,96.247h256.66
			c64.165,0,117.636-53.471,117.636-117.636C470.543,226.716,421.35,175.385,359.324,171.107L359.324,171.107z M352.907,363.602
			H96.247c-29.944,0-53.471-23.527-53.471-53.471s23.527-53.471,53.471-53.471c6.416,17.11,19.249,34.221,32.082,47.055
			l29.944-29.944c-19.249-19.249-29.944-42.777-29.944-70.581c0-53.471,42.777-96.247,96.247-96.247
			c49.193,0,91.97,38.499,96.247,87.692l2.139,19.249h29.944c40.638,0,74.859,34.221,74.859,74.859
			C427.767,329.381,393.545,363.602,352.907,363.602L352.907,363.602z"/>
	</g>
</g>
<g>
</g>
<g>
</g>
<g>
</g>
<g>
</g>
<g>
</g>
<g>
</g>
<g>
</g>
<g>
</g>
<g>
</g>
<g>
</g>
<g>
</g>
<g>
</g>
<g>
</g>
<g>
</g>
<g>
</g>
</svg>
