<?xml version="1.0" ?>
<!DOCTYPE svg  PUBLIC '-//W3C//DTD SVG 1.1//EN'  'http://www.w3.org/Graphics/SVG/1.1/DTD/svg11.dtd'>
<!-- Uploaded to: SVG Repo, www.svgrepo.com, Generator: SVG Repo Mixer Tools -->
<svg fill="#000000" width="800px" height="800px" viewBox="0 0 512 512" enable-background="new 0 0 512 512" id="television_1_" version="1.1" xml:space="preserve" xmlns="http://www.w3.org/2000/svg" xmlns:xlink="http://www.w3.org/1999/xlink">
<g id="television">
<path d="M42.4,315.607H469.6V106.215H42.4V315.607z M49.6,113.415H462.4v194.993H49.6V113.415z"/>
<path d="M479.111,88.215H32.889c-4.68,0-8.488,3.809-8.488,8.489v228.415c0,4.681,3.809,8.488,8.488,8.488h116.232v17.744   c0,3.329,2.709,6.037,6.038,6.037h49.521l-0.295,59.191H157.04v7.201h47.309v0.004h92.217v-0.004h47.675v-7.201h-47.639   l0.296-59.191h49.225c3.328,0,6.036-2.708,6.036-6.037v-17.744h126.953c4.68,0,8.488-3.808,8.488-8.488V96.704   C487.6,92.023,483.791,88.215,479.111,88.215z M289.4,416.58h-77.816l0.296-59.191h77.816L289.4,416.58z M344.958,350.189H156.321   v-16.582h188.637V350.189z M480.4,325.119c0,0.711-0.578,1.289-1.289,1.289H352.158H149.121H32.889   c-0.711,0-1.289-0.578-1.289-1.289V96.704c0-0.711,0.578-1.289,1.289-1.289h446.223c0.711,0,1.289,0.578,1.289,1.289V325.119z"/>
</g>
</svg>