<?xml version="1.0" ?><svg viewBox="0 0 32 32" xmlns="http://www.w3.org/2000/svg"><g data-name="Custom Party" id="Custom_Party"><path d="M24.21,16.64a6.54,6.54,0,1,0,0-13.07h0a6.53,6.53,0,0,0-4.88,2.2,7.79,7.79,0,0,0-3.25-.68,8.63,8.63,0,0,0-3.39.69,6.56,6.56,0,0,0-4.9-2.21h0a6.54,6.54,0,1,0,5,10.67l-.26,2h-.17a2.81,2.81,0,0,0-2.81,2.81v0H9.3a6.05,6.05,0,0,0-6.05,6v2.53a.75.75,0,0,0,.75.75h6a6.76,6.76,0,0,0,6-3.65,6.76,6.76,0,0,0,6,3.65h6a.75.75,0,0,0,.75-.75V25.15a6.05,6.05,0,0,0-6.05-6h-.26v0a2.81,2.81,0,0,0-2.81-2.81h-.17l-.26-2A6.5,6.5,0,0,0,24.21,16.64ZM10,26.93H4.75V25.15A4.55,4.55,0,0,1,9.3,20.6H10a2.83,2.83,0,0,0,2.3,1.28,3.81,3.81,0,0,0,2.29,2.32A5.26,5.26,0,0,1,10,26.93ZM22.7,20.6a4.55,4.55,0,0,1,4.55,4.55v1.78H22a5.25,5.25,0,0,1-4.6-2.72,3.85,3.85,0,0,0,2.29-2.33A2.84,2.84,0,0,0,22,20.6Zm-3.07-2.83a1.31,1.31,0,1,1,0,2.61h-.52a.75.75,0,0,0-.74.62,2.4,2.4,0,0,1-4.73,0,.76.76,0,0,0-.74-.62h-.52a1.31,1.31,0,1,1,0-2.61h.83a.75.75,0,0,0,.74-.65c0-.1.89-6.8.87-6.7A1.18,1.18,0,0,1,16,9.37a1.21,1.21,0,0,1,1.19,1.07l.87,6.68a.75.75,0,0,0,.74.65Zm-.94-7.41,0-.11a2.69,2.69,0,0,0-5.34,0v.1a1.23,1.23,0,0,0-.61.81,5.07,5.07,0,0,1-4.92,4,5,5,0,1,1,0-10.07h0a5.05,5.05,0,0,1,4.08,2.09.75.75,0,0,0,1,.2,6.89,6.89,0,0,1,3.22-.77,5.8,5.8,0,0,1,3,.75.75.75,0,0,0,1-.18,5.06,5.06,0,0,1,4.08-2.09h0a5,5,0,0,1,5,5,5,5,0,0,1-10,1.07A1.27,1.27,0,0,0,18.69,10.36Z"/><path d="M7.79,6A4.11,4.11,0,0,0,3.68,10.1,4.11,4.11,0,1,0,7.79,6Zm0,6.73A2.61,2.61,0,0,1,5.18,10.1,2.61,2.61,0,0,1,7.77,7.49h0a2.62,2.62,0,0,1,0,5.23Z"/><path d="M24.21,14.22a4.13,4.13,0,0,0,4.12-4.12,4.05,4.05,0,0,0-1.22-2.91A4.11,4.11,0,0,0,24.19,6h0a4.12,4.12,0,0,0,.05,8.23Zm0-6.73a2.67,2.67,0,0,1,1.88.76,2.62,2.62,0,1,1-1.88-.76Z"/></g></svg>