<?xml version="1.0" encoding="UTF-8"?>
<svg version="1.1" xmlns="http://www.w3.org/2000/svg" width="1833" height="1941">
<path d="M0 0 C3.93221011 1.3107367 4.29606172 2.76787188 6.30078125 6.34375 C6.94096191 7.47522461 7.58114258 8.60669922 8.24072266 9.77246094 C8.93146883 11.0148885 9.62205724 12.2574038 10.3125 13.5 C11.03091644 14.77682995 11.75016508 16.05319199 12.47021484 17.32910156 C14.30816849 20.591285 16.13526028 23.85939272 17.95794678 27.13012695 C19.52804519 29.94753075 21.10212879 32.76270516 22.67578125 35.578125 C24.40132871 38.66536027 26.12654303 41.75276744 27.84887695 44.84179688 C31.8178943 51.94336017 35.88234649 58.98372006 40 66 C45.31820259 75.06195678 50.49870852 84.19192238 55.61376953 93.36987305 C59.98751785 101.21097188 64.41512992 109.02015943 68.875 116.8125 C69.20769897 117.39395782 69.54039795 117.97541565 69.88317871 118.57449341 C72.25389051 122.7172242 74.62668456 126.85876039 77 131 C79.70977867 135.72834018 82.4184702 140.45729928 85.125 145.1875 C85.45737671 145.76823273 85.78975342 146.34896545 86.13220215 146.94729614 C90.84634403 155.18729618 95.50357591 163.45764827 100.125 171.75 C104.63775171 179.84721325 109.24138697 187.88279194 113.9375 195.875 C119.57878732 205.47577871 125.01212268 215.17951624 130.39208984 224.92871094 C134.51855524 232.38648756 138.74463655 239.77652631 143.0625 247.125 C148.36219078 256.14442331 153.52142823 265.23259149 158.61401367 274.37036133 C162.98772681 282.21127144 167.41522019 290.02031715 171.875 297.8125 C172.20769897 298.39395782 172.54039795 298.97541565 172.88317871 299.57449341 C175.25389051 303.7172242 177.62668456 307.85876039 180 312 C182.70977867 316.72834018 185.4184702 321.45729928 188.125 326.1875 C188.45737671 326.76823273 188.78975342 327.34896545 189.13220215 327.94729614 C193.84634403 336.18729618 198.50357591 344.45764827 203.125 352.75 C207.63775171 360.84721325 212.24138697 368.88279194 216.9375 376.875 C222.57878732 386.47577871 228.01212268 396.17951624 233.39208984 405.92871094 C237.51855524 413.38648756 241.74463655 420.77652631 246.0625 428.125 C251.36219078 437.14442331 256.52142823 446.23259149 261.61401367 455.37036133 C265.98772681 463.21127144 270.41522019 471.02031715 274.875 478.8125 C275.20769897 479.39395782 275.54039795 479.97541565 275.88317871 480.57449341 C278.25389051 484.7172242 280.62668456 488.85876039 283 493 C285.70977867 497.72834018 288.4184702 502.45729928 291.125 507.1875 C291.45737671 507.76823273 291.78975342 508.34896545 292.13220215 508.94729614 C296.84634403 517.18729618 301.50357591 525.45764827 306.125 533.75 C310.63775171 541.84721325 315.24138697 549.88279194 319.9375 557.875 C325.57878732 567.47577871 331.01212268 577.17951624 336.39208984 586.92871094 C340.51855524 594.38648756 344.74463655 601.77652631 349.0625 609.125 C354.36219078 618.14442331 359.52142823 627.23259149 364.61401367 636.37036133 C368.98772681 644.21127144 373.41522019 652.02031715 377.875 659.8125 C378.20769897 660.39395782 378.54039795 660.97541565 378.88317871 661.57449341 C381.25389051 665.7172242 383.62668456 669.85876039 386 674 C388.70977867 678.72834018 391.4184702 683.45729928 394.125 688.1875 C394.45737671 688.76823273 394.78975342 689.34896545 395.13220215 689.94729614 C399.84634403 698.18729618 404.50357591 706.45764827 409.125 714.75 C413.63775171 722.84721325 418.24138697 730.88279194 422.9375 738.875 C428.57878732 748.47577871 434.01212268 758.17951624 439.39208984 767.92871094 C443.51855524 775.38648756 447.74463655 782.77652631 452.0625 790.125 C457.36219078 799.14442331 462.52142823 808.23259149 467.61401367 817.37036133 C471.98772681 825.21127144 476.41522019 833.02031715 480.875 840.8125 C481.20769897 841.39395782 481.54039795 841.97541565 481.88317871 842.57449341 C484.25389051 846.7172242 486.62668456 850.85876039 489 855 C491.70977867 859.72834018 494.4184702 864.45729928 497.125 869.1875 C497.45737671 869.76823273 497.78975342 870.34896545 498.13220215 870.94729614 C502.84634403 879.18729618 507.50357591 887.45764827 512.125 895.75 C516.63775171 903.84721325 521.24138697 911.88279194 525.9375 919.875 C531.57961427 929.47718607 537.01402469 939.18220327 542.39428711 948.93310547 C546.49727022 956.34915852 550.70245979 963.69515175 555 971 C559.96079169 979.43222606 564.77364413 987.93420335 569.5 996.5 C574.80206842 1006.10816063 580.23960957 1015.62179088 585.80078125 1025.08203125 C590.56693713 1033.20811234 595.17197811 1041.41759789 599.75244141 1049.64941406 C603.72836202 1056.77658706 607.80183349 1063.8394864 611.9375 1070.875 C617.62145144 1080.55081338 623.10790608 1090.32556568 628.53710938 1100.14624023 C633.72738621 1109.53037393 639.02143047 1118.85046637 644.36328125 1128.14892578 C647.56164526 1133.72030032 650.74944867 1139.29772033 653.9375 1144.875 C654.27933319 1145.47287323 654.62116638 1146.07074646 654.97335815 1146.68673706 C659.504087 1154.61220363 664.01461408 1162.54876128 668.5 1170.5 C673.24488573 1178.91071875 678.01917974 1187.3043103 682.8125 1195.6875 C683.31447906 1196.56554794 683.31447906 1196.56554794 683.82659912 1197.46133423 C687.23667004 1203.42563159 690.64930669 1209.38845512 694.06489563 1215.34959412 C695.75239031 1218.29510888 697.43892475 1221.24117253 699.125 1224.1875 C699.45728607 1224.76805145 699.78957214 1225.34860291 700.13192749 1225.94674683 C704.84615506 1234.18693278 709.50347668 1242.45747023 714.125 1250.75 C718.63775171 1258.84721325 723.24138697 1266.88279194 727.9375 1274.875 C733.57878732 1284.47577871 739.01212268 1294.17951624 744.39208984 1303.92871094 C748.51855524 1311.38648756 752.74463655 1318.77652631 757.0625 1326.125 C762.36219078 1335.14442331 767.52142823 1344.23259149 772.61401367 1353.37036133 C776.98772681 1361.21127144 781.41522019 1369.02031715 785.875 1376.8125 C786.20769897 1377.39395782 786.54039795 1377.97541565 786.88317871 1378.57449341 C789.25389051 1382.7172242 791.62668456 1386.85876039 794 1391 C796.70977867 1395.72834018 799.4184702 1400.45729928 802.125 1405.1875 C802.45737671 1405.76823273 802.78975342 1406.34896545 803.13220215 1406.94729614 C807.84634403 1415.18729618 812.50357591 1423.45764827 817.125 1431.75 C821.63775171 1439.84721325 826.24138697 1447.88279194 830.9375 1455.875 C836.57878732 1465.47577871 842.01212268 1475.17951624 847.39208984 1484.92871094 C851.51855578 1492.38648853 855.74466408 1499.77650925 860.0625 1507.125 C866.01696658 1517.25956744 871.79192959 1527.48537225 877.51171875 1537.75390625 C879.91313969 1542.06367812 882.33360877 1546.36197705 884.76953125 1550.65234375 C885.37466553 1551.71831787 885.9797998 1552.78429199 886.60327148 1553.88256836 C887.76387345 1555.92469686 888.92608619 1557.96591093 890.09008789 1560.00610352 C890.60434326 1560.91158936 891.11859863 1561.8170752 891.6484375 1562.75 C892.10395996 1563.54921875 892.55948242 1564.3484375 893.02880859 1565.171875 C894 1567 894 1567 894 1568 C867.64305437 1568.9725286 841.30088756 1569.20578714 814.92803407 1569.30331039 C809.06746313 1569.32582737 803.20691349 1569.35306245 797.34635925 1569.3795166 C786.05534919 1569.42960967 774.76432459 1569.47468121 763.47328538 1569.51765215 C754.38249214 1569.5523082 745.29170869 1569.58894527 736.20092773 1569.62667847 C647.13372263 1569.99492839 558.06783584 1570.13557432 469 1570 C466.91388054 1566.31064973 464.82801224 1562.62115753 462.7421875 1558.93164062 C462.1546167 1557.89251526 461.5670459 1556.85338989 460.96166992 1555.78277588 C456.95675562 1548.69829327 452.96759073 1541.60545716 449 1534.5 C444.52017503 1526.48848771 440.02193753 1518.48781666 435.5 1510.5 C428.03067362 1497.30362291 420.63063555 1484.068682 413.22949219 1470.83398438 C407.00805614 1459.71029032 400.77802466 1448.59187595 394.5 1437.5 C387.03078676 1424.30355826 379.630636 1411.06868279 372.22949219 1397.83398438 C365.47768207 1385.76200141 358.708437 1373.70048974 351.89428711 1361.66357422 C347.31436491 1353.56847336 342.77032338 1345.45355836 338.23046875 1337.3359375 C334.33841945 1330.38030171 330.42660258 1323.43618197 326.5 1316.5 C319.03067362 1303.30362291 311.63063555 1290.068682 304.22949219 1276.83398438 C298.00805614 1265.71029032 291.77802466 1254.59187595 285.5 1243.5 C278.03078676 1230.30355826 270.630636 1217.06868279 263.22949219 1203.83398438 C257.00805614 1192.71029032 250.77802466 1181.59187595 244.5 1170.5 C237.03078676 1157.30355826 229.630636 1144.06868279 222.22949219 1130.83398438 C216.00805614 1119.71029032 209.77802466 1108.59187595 203.5 1097.5 C196.03078676 1084.30355826 188.630636 1071.06868279 181.22949219 1057.83398438 C174.47768207 1045.76200141 167.708437 1033.70048974 160.89428711 1021.66357422 C156.31436491 1013.56847336 151.77032338 1005.45355836 147.23046875 997.3359375 C143.33841945 990.38030171 139.42660258 983.43618197 135.5 976.5 C128.03067362 963.30362291 120.63063555 950.068682 113.22949219 936.83398438 C107.00805614 925.71029032 100.77802466 914.59187595 94.5 903.5 C87.03078676 890.30355826 79.630636 877.06868279 72.22949219 863.83398438 C66.00805614 852.71029032 59.77802466 841.59187595 53.5 830.5 C46.03078676 817.30355826 38.630636 804.06868279 31.22949219 790.83398438 C24.7532842 779.25476766 18.26853263 767.68045617 11.75 756.125 C11.20077881 755.14966309 10.65155762 754.17432617 10.08569336 753.16943359 C9.5778833 752.27047363 9.07007324 751.37151367 8.546875 750.4453125 C8.10182617 749.65656738 7.65677734 748.86782227 7.19824219 748.05517578 C6.19391587 746.33259654 5.10606031 744.65909047 4 743 C-3.01633655 753.96640777 -9.67219609 765.13822474 -16.29986572 776.34164429 C-22.03593622 786.035769 -27.82391455 795.69498789 -33.6875 805.3125 C-41.18625375 817.61819161 -48.55043645 830.00065828 -55.87841797 842.40869141 C-59.72544049 848.9218516 -63.57905409 855.43110101 -67.4375 861.9375 C-67.83773376 862.61244507 -68.23796753 863.28739014 -68.65032959 863.98278809 C-74.55192364 873.92978893 -80.52117735 883.83333062 -86.54171753 893.70870972 C-92.26435879 903.09823093 -97.89933363 912.53727347 -103.5 922 C-109.78046857 932.61130098 -116.122925 943.18099227 -122.54199219 953.70898438 C-128.67394873 963.77021148 -134.70097987 973.89115955 -140.70196533 984.03094482 C-146.36642431 993.59936173 -152.08898594 1003.129615 -157.875 1012.625 C-164.39724323 1023.33134478 -170.81414758 1034.09521146 -177.17285156 1044.89941406 C-180.85477585 1051.14746836 -184.55043191 1057.38737969 -188.25 1063.625 C-188.65555115 1064.30880737 -189.06110229 1064.99261475 -189.47894287 1065.69714355 C-195.43771033 1075.73877566 -201.46273597 1085.73757554 -207.54089355 1095.70733643 C-213.26380686 1105.09731701 -218.89906173 1114.53681408 -224.5 1124 C-230.78046857 1134.61130098 -237.122925 1145.18099227 -243.54199219 1155.70898438 C-249.67394873 1165.77021148 -255.70097987 1175.89115955 -261.70196533 1186.03094482 C-267.36642431 1195.59936173 -273.08898594 1205.129615 -278.875 1214.625 C-285.39724323 1225.33134478 -291.81414758 1236.09521146 -298.17285156 1246.89941406 C-301.85477585 1253.14746836 -305.55043191 1259.38737969 -309.25 1265.625 C-309.65555115 1266.30880737 -310.06110229 1266.99261475 -310.47894287 1267.69714355 C-316.43771033 1277.73877566 -322.46273597 1287.73757554 -328.54089355 1297.70733643 C-334.26380686 1307.09731701 -339.89906173 1316.53681408 -345.5 1326 C-351.78046857 1336.61130098 -358.122925 1347.18099227 -364.54199219 1357.70898438 C-370.67394873 1367.77021148 -376.70097987 1377.89115955 -382.70196533 1388.03094482 C-388.36642431 1397.59936173 -394.08898594 1407.129615 -399.875 1416.625 C-406.39724323 1427.33134478 -412.81414758 1438.09521146 -419.17285156 1448.89941406 C-422.85477585 1455.14746836 -426.55043191 1461.38737969 -430.25 1467.625 C-430.65555115 1468.30880737 -431.06110229 1468.99261475 -431.47894287 1469.69714355 C-437.43771033 1479.73877566 -443.46273597 1489.73757554 -449.54089355 1499.70733643 C-455.66916065 1509.76240907 -461.69316162 1519.87682531 -467.68988037 1530.01080322 C-474.32535 1541.22125634 -481.04869611 1552.37571788 -487.83398438 1563.49609375 C-488.49978516 1564.58792969 -489.16558594 1565.67976563 -489.8515625 1566.8046875 C-490.43760254 1567.76358887 -491.02364258 1568.72249023 -491.62744141 1569.71044922 C-492.99265193 1571.92170289 -492.99265193 1571.92170289 -494 1574 C-631.94 1574 -769.88 1574 -912 1574 C-911.09862268 1570.39449071 -910.09187675 1568.10549903 -908.296875 1564.9140625 C-907.73556885 1563.9125415 -907.1742627 1562.91102051 -906.59594727 1561.87915039 C-905.98678467 1560.80528076 -905.37762207 1559.73141113 -904.75 1558.625 C-904.11956787 1557.50665771 -903.48913574 1556.38831543 -902.83959961 1555.23608398 C-898.30775424 1547.22787867 -893.67092114 1539.2861302 -888.96557617 1531.37890625 C-884.77158659 1524.32810456 -880.65383488 1517.23581677 -876.5625 1510.125 C-871.73432746 1501.73460461 -866.8853078 1493.35726478 -862 1485 C-857.13888422 1476.68253281 -852.30858861 1468.34794286 -847.5 1460 C-839.80882531 1446.64984335 -832.0451704 1433.34266872 -824.27050781 1420.04101562 C-817.01146858 1407.61917409 -809.78695829 1395.17841579 -802.60571289 1382.71142578 C-797.85585468 1374.47030809 -793.06904959 1366.2513309 -788.26953125 1358.0390625 C-783.98777878 1350.70716277 -779.73789061 1343.35732762 -775.5 1336 C-770.1208592 1326.66136793 -764.70740553 1317.34359683 -759.26953125 1308.0390625 C-754.98777854 1300.70716236 -750.73795309 1293.35729193 -746.5 1286 C-738.80882531 1272.64984335 -731.0451704 1259.34266872 -723.27050781 1246.04101562 C-716.01146858 1233.61917409 -708.78695829 1221.17841579 -701.60571289 1208.71142578 C-696.85585468 1200.47030809 -692.06904959 1192.2513309 -687.26953125 1184.0390625 C-682.98777854 1176.70716236 -678.73795309 1169.35729193 -674.5 1162 C-666.80882531 1148.64984335 -659.0451704 1135.34266872 -651.27050781 1122.04101562 C-644.01146858 1109.61917409 -636.78695829 1097.17841579 -629.60571289 1084.71142578 C-624.85585468 1076.47030809 -620.06904959 1068.2513309 -615.26953125 1060.0390625 C-610.98777878 1052.70716277 -606.73789061 1045.35732762 -602.5 1038 C-597.1208592 1028.66136793 -591.70740553 1019.34359683 -586.26953125 1010.0390625 C-581.98777854 1002.70716236 -577.73795309 995.35729193 -573.5 988 C-565.80882531 974.64984335 -558.0451704 961.34266872 -550.27050781 948.04101562 C-543.01146858 935.61917409 -535.78695829 923.17841579 -528.60571289 910.71142578 C-523.85585468 902.47030809 -519.06904959 894.2513309 -514.26953125 886.0390625 C-509.98777854 878.70716236 -505.73795309 871.35729193 -501.5 864 C-493.80882531 850.64984335 -486.0451704 837.34266872 -478.27050781 824.04101562 C-471.01146858 811.61917409 -463.78695829 799.17841579 -456.60571289 786.71142578 C-451.85585468 778.47030809 -447.06904959 770.2513309 -442.26953125 762.0390625 C-437.98777878 754.70716277 -433.73789061 747.35732762 -429.5 740 C-424.1208592 730.66136793 -418.70740553 721.34359683 -413.26953125 712.0390625 C-408.98777854 704.70716236 -404.73795309 697.35729193 -400.5 690 C-392.80882531 676.64984335 -385.0451704 663.34266872 -377.27050781 650.04101562 C-370.01146858 637.61917409 -362.78695829 625.17841579 -355.60571289 612.71142578 C-350.85585468 604.47030809 -346.06904959 596.2513309 -341.26953125 588.0390625 C-336.98777854 580.70716236 -332.73795309 573.35729193 -328.5 566 C-320.80882531 552.64984335 -313.0451704 539.34266872 -305.27050781 526.04101562 C-298.01146858 513.61917409 -290.78695829 501.17841579 -283.60571289 488.71142578 C-278.85585468 480.47030809 -274.06904959 472.2513309 -269.26953125 464.0390625 C-264.98777878 456.70716277 -260.73789061 449.35732762 -256.5 442 C-251.1208592 432.66136793 -245.70740553 423.34359683 -240.26953125 414.0390625 C-235.98777854 406.70716236 -231.73795309 399.35729193 -227.5 392 C-219.80882531 378.64984335 -212.0451704 365.34266872 -204.27050781 352.04101562 C-197.01146858 339.61917409 -189.78695829 327.17841579 -182.60571289 314.71142578 C-177.85585468 306.47030809 -173.06904959 298.2513309 -168.26953125 290.0390625 C-163.98777854 282.70716236 -159.73795309 275.35729193 -155.5 268 C-147.80882531 254.64984335 -140.0451704 241.34266872 -132.27050781 228.04101562 C-125.01146858 215.61917409 -117.78695829 203.17841579 -110.60571289 190.71142578 C-105.85585468 182.47030809 -101.06904959 174.2513309 -96.26953125 166.0390625 C-91.98777878 158.70716277 -87.73789061 151.35732762 -83.5 144 C-78.1208592 134.66136793 -72.70740553 125.34359683 -67.26953125 116.0390625 C-62.98777854 108.70716236 -58.73795309 101.35729193 -54.5 94 C-46.80882531 80.64984335 -39.0451704 67.34266872 -31.27050781 54.04101562 C-20.76994111 36.07219477 -10.30917011 18.07951475 0 0 Z " fill="#EAEBEB" transform="translate(939,0)"/>
<path d="M0 0 C2.75489664 2.44216486 4.23062958 5.03875677 5.90625 8.30078125 C6.47577393 9.40437988 7.04529785 10.50797852 7.63208008 11.64501953 C8.25493852 12.86740173 8.87757141 14.08989887 9.5 15.3125 C10.15556138 16.58982562 10.8114116 17.86700302 11.4675293 19.14404297 C17.78692251 31.47396033 23.96958057 43.87394348 30.125 56.28637695 C33.96596911 64.01930879 37.87373592 71.70711443 41.91796875 79.3359375 C47.75317202 90.34656511 53.28462071 101.50388671 58.82275391 112.66601562 C63.44446525 121.97431641 68.09821508 131.25647191 72.96875 140.4375 C78.99009611 151.78946127 84.68277447 163.30210476 90.39550781 174.81152344 C95.57257049 185.23457954 100.81288259 195.610817 106.26696777 205.8918457 C111.64192996 216.05404106 116.71360032 226.36849677 121.82275391 236.66601562 C126.45222737 245.98994961 131.11426655 255.28750531 135.9921875 264.484375 C141.38395029 274.65016768 146.51050313 284.94260885 151.625 295.25 C153.40635206 298.83979202 155.18979127 302.42852699 156.9765625 306.015625 C157.4021344 306.87071655 157.8277063 307.72580811 158.26617432 308.60681152 C161.28868764 314.65125533 164.41774295 320.6307836 167.68374634 326.54742432 C170 330.79058661 170 330.79058661 170 333 C146.82503189 333.96711567 123.66938566 334.20527458 100.47678375 334.30331039 C95.35564235 334.32581046 90.23452544 334.35304422 85.11340332 334.3795166 C75.27075991 334.42953882 65.42810007 334.47462472 55.58542383 334.51765215 C47.67487082 334.55229974 39.76432905 334.58892581 31.85379028 334.62667847 C-40.76450411 334.97206112 -113.38095538 335.14402385 -186 335 C-184.70606955 331.7144159 -183.33106036 328.60716097 -181.63671875 325.5078125 C-181.16903076 324.65034424 -180.70134277 323.79287598 -180.21948242 322.90942383 C-179.71392822 321.99056396 -179.20837402 321.0717041 -178.6875 320.125 C-177.88953003 318.66839966 -177.88953003 318.66839966 -177.07543945 317.18237305 C-172.80197511 309.40488047 -168.44706832 301.67479452 -164.06689453 293.95703125 C-159.8575547 286.53566046 -155.70012056 279.08657124 -151.5625 271.625 C-146.72746657 262.90583338 -141.87699012 254.1957719 -137 245.5 C-132.14629968 236.84456546 -127.31509209 228.17697096 -122.5 219.5 C-114.79514009 205.61713669 -107.03676451 191.76459758 -99.27050781 177.91601562 C-97.534084 174.81924626 -95.79811386 171.72222338 -94.0625 168.625 C-93.48822266 167.60019531 -92.91394531 166.57539062 -92.32226562 165.51953125 C-88.00839397 157.81515846 -83.72011713 150.09677997 -79.4375 142.375 C-74.82702276 134.06300368 -70.1876305 125.7687295 -65.5 117.5 C-58.25155188 104.71202414 -51.12565387 91.85668436 -44 79 C-36.36307747 65.22084314 -28.7097363 51.45304191 -20.93994141 37.74829102 C-16.50483731 29.91595473 -12.12038044 22.05606723 -7.75 14.1875 C-7.41718018 13.58856934 -7.08436035 12.98963867 -6.74145508 12.37255859 C-3.28068808 6.23415357 -3.28068808 6.23415357 0 0 Z " fill="#EAEBEB" transform="translate(942,1235)"/>
<path d="M0 0 C15.51 0 31.02 0 47 0 C51.69192218 6.70274597 56.05110131 13.26455895 60.125 20.3125 C64.47019062 27.74726795 68.88553474 35.12742006 73.4375 42.4375 C77.93604398 49.66360361 82.39529031 56.91136366 86.8125 64.1875 C91.78305596 72.37250578 96.78617839 80.53662516 101.8125 88.6875 C105.98528544 95.45435694 110.14685104 102.22748053 114.265625 109.02734375 C114.80499947 109.91757484 114.80499947 109.91757484 115.35527039 110.82579041 C117.05632326 113.63446563 118.75509509 116.44446428 120.45043945 119.2565918 C127.50538629 130.92194953 134.77134984 142.43415975 142 154 C142.33 103.18 142.66 52.36 143 0 C157.85 0 172.7 0 188 0 C188 77.88 188 155.76 188 236 C171.5 236 155 236 138 236 C128.30981792 225.4035419 128.30981792 225.4035419 127.06640625 220.3828125 C125.02519853 213.5607995 121.67746392 208.26594921 117.75 202.375 C116.48034764 200.3700696 115.21743433 198.36085737 113.9609375 196.34765625 C113.31737305 195.32043457 112.67380859 194.29321289 112.01074219 193.23486328 C108.41863664 187.45591738 104.8973277 181.63414825 101.375 175.8125 C95.87921856 166.73081861 90.34403326 157.67592507 84.74169922 148.65942383 C80.79112191 142.29501544 76.88800581 135.90279879 73 129.5 C68.38267374 121.89888403 63.74220898 114.31289024 59.0625 106.75 C58.55525391 105.92951172 58.04800781 105.10902344 57.52539062 104.26367188 C53.73185899 98.14330826 49.86659927 92.07608456 46 86 C45.67 135.5 45.34 185 45 236 C30.15 236 15.3 236 0 236 C0 158.12 0 80.24 0 0 Z " fill="#EAEBEB" transform="translate(668,1701)"/>
<path d="M0 0 C24.22330931 22.12369662 36.1045546 48.71176541 39.43359375 81.22265625 C39.66862494 86.63692031 39.67861248 92.05384269 39.68359375 97.47265625 C39.68460083 98.23043365 39.68560791 98.98821106 39.68664551 99.76895142 C39.6758265 111.81417169 39.03511592 123.42329545 36.43359375 135.22265625 C36.294375 135.88668457 36.15515625 136.55071289 36.01171875 137.23486328 C31.80111471 156.80150125 22.51176164 173.21221851 9.43359375 188.22265625 C8.89347656 188.84785156 8.35335938 189.47304687 7.796875 190.1171875 C-9.59949837 208.82814827 -36.40182566 219.12489474 -61.52026367 220.42773438 C-65.785911 220.5497139 -70.04936309 220.55719628 -74.31640625 220.53515625 C-75.06752686 220.5330011 -75.81864746 220.53084595 -76.5925293 220.52862549 C-87.51921817 220.47829219 -97.9751421 220.16467407 -108.56640625 217.22265625 C-109.64583496 216.92464111 -109.64583496 216.92464111 -110.74707031 216.62060547 C-126.08687724 212.26530086 -139.48942519 205.76844864 -151.56640625 195.22265625 C-152.22640625 194.70574219 -152.88640625 194.18882812 -153.56640625 193.65625 C-175.19881105 176.25437598 -185.37216312 147.72049784 -188.48266602 121.03222656 C-191.45267091 93.00564575 -190.30880114 61.89000184 -177.56640625 36.22265625 C-177.06496094 35.18238281 -176.56351563 34.14210938 -176.046875 33.0703125 C-163.94797214 9.24085745 -144.1449668 -9.25048254 -118.81054688 -18.06640625 C-80.32875999 -30.25732916 -31.68022173 -26.87209365 0 0 Z M-122.56640625 38.22265625 C-125.24407213 41.73359956 -127.4708799 45.33960742 -129.56640625 49.22265625 C-130.25669922 50.46402344 -130.25669922 50.46402344 -130.9609375 51.73046875 C-143.53963968 76.58385614 -142.19308083 110.01742495 -134.44140625 136.03515625 C-128.28065709 153.13400197 -116.42785916 166.69001276 -99.9140625 174.47265625 C-82.43435655 181.45427155 -63.84710406 180.32888566 -46.734375 173.01171875 C-34.93134939 167.1693055 -25.64387082 157.85479274 -19.56640625 146.22265625 C-19.1075 145.34609375 -18.64859375 144.46953125 -18.17578125 143.56640625 C-6.39502695 118.30165607 -7.21275511 83.84147286 -15.69921875 57.73828125 C-21.90989352 41.53294442 -32.26875024 29.88138726 -48.125 22.62890625 C-73.4753619 12.27007505 -103.98714974 17.58910796 -122.56640625 38.22265625 Z " fill="#EAEBEB" transform="translate(1321.56640625,1720.77734375)"/>
<path d="M0 0 C0.67598236 0.00215515 1.35196472 0.0043103 2.0484314 0.00653076 C29.47206066 0.1463215 55.76487399 6.83148147 76.75 25.3125 C77.56855469 25.98796875 78.38710937 26.6634375 79.23046875 27.359375 C102.35268526 47.00429694 112.25403984 76.17775654 115 105.625 C117.75097873 139.84265328 113.41263479 177.43348409 91.375 205.1875 C89.85729708 206.91715798 88.31510165 208.62561064 86.75 210.3125 C85.93015625 211.22386719 85.1103125 212.13523437 84.265625 213.07421875 C66.29060546 232.13943918 40.12699808 243.35342352 13.99047852 244.47363281 C-22.75461281 244.87321274 -54.85960462 240.52696905 -82.4375 213.5625 C-106.32490184 189.29068551 -113.71150338 156.73236658 -113.5625 123.6875 C-113.56067719 122.84933746 -113.55885437 122.01117493 -113.55697632 121.14761353 C-113.51129338 108.67230193 -113.1498103 96.502549 -110.25 84.3125 C-110.08371094 83.58949707 -109.91742187 82.86649414 -109.74609375 82.12158203 C-103.34571603 55.28147955 -86.56135773 30.34941836 -63.25 15.3125 C-43.80277846 3.9608047 -22.32577106 -0.0975594 0 0 Z M-46.66015625 62 C-63.58607515 83.24923374 -65.89741048 111.50905684 -63.54785156 137.69189453 C-61.26226112 157.80134357 -53.8456059 177.04692307 -37.90234375 190.2578125 C-24.18183293 200.30357478 -8.02816706 204.99167068 8.921875 202.87890625 C21.44633003 200.93291103 32.2505345 196.83355613 41.75 188.3125 C42.43835937 187.70535156 43.12671875 187.09820313 43.8359375 186.47265625 C60.46021698 170.89933696 65.06285919 147.88677514 65.875 125.93359375 C66.27689496 102.24690977 62.91160123 77.13900835 45.93920898 59.30371094 C34.63842302 47.9932876 20.27855693 42.14229657 4.38989258 41.98291016 C3.41560303 41.9885498 2.44131348 41.99418945 1.4375 42 C0.42002686 42.00563965 -0.59744629 42.0112793 -1.64575195 42.01708984 C-19.21691438 42.30124442 -34.7813013 48.75421036 -46.66015625 62 Z " fill="#EAEBEB" transform="translate(1501.25,1696.6875)"/>
<path d="M0 0 C17.16 0 34.32 0 52 0 C56.49992655 8.99985309 56.49992655 8.99985309 57.83084106 12.35557556 C58.13735785 13.12332526 58.44387463 13.89107496 58.75967979 14.68208981 C59.24239562 15.90667825 59.24239562 15.90667825 59.73486328 17.15600586 C60.08823069 18.0440091 60.44159809 18.93201235 60.8056736 19.84692478 C61.98052012 22.80159863 63.15037141 25.75822448 64.3203125 28.71484375 C65.16406999 30.83928644 66.00817474 32.96359124 66.8526001 35.08776855 C68.66512733 39.64896217 70.47557236 44.21097436 72.28436279 48.77365112 C76.61634623 59.70067581 80.95871322 70.6235755 85.30026627 81.54680061 C86.30244687 84.06831938 87.3044392 86.58991283 88.3062706 89.11157036 C95.85217521 108.10479138 103.42261972 127.08805948 111.015625 146.0625 C111.49801006 147.26797548 111.98039513 148.47345097 112.47739792 149.71545601 C117.14124122 161.3693095 121.80789591 173.02203638 126.47557831 184.67435265 C128.19337368 188.96309204 129.91053334 193.25208579 131.62758636 197.54112244 C132.79376296 200.45327631 133.96096278 203.3650185 135.12823486 206.2767334 C138.11257629 213.72594977 141.09041965 221.17781475 144.01025391 228.65258789 C144.4006485 229.65149551 144.79104309 230.65040314 145.19326782 231.67958069 C146 234 146 234 146 236 C128.84 236 111.68 236 94 236 C91.00269383 228.8064652 88.02970654 221.63490125 85.23046875 214.3671875 C84.90460281 213.52326447 84.57873688 212.67934143 84.24299622 211.80984497 C83.5658354 210.05422777 82.88954242 208.29827559 82.21411133 206.54199219 C81.17567642 203.84428401 80.13186334 201.14869422 79.08789062 198.453125 C78.42675671 196.73710497 77.76593749 195.02096366 77.10546875 193.3046875 C76.63683662 192.09702225 76.63683662 192.09702225 76.15873718 190.86495972 C74 185.22887123 74 185.22887123 74 183 C42.98 183 11.96 183 -20 183 C-20.99 186.3 -21.98 189.6 -23 193 C-23.55067727 194.66385114 -24.11355439 196.32386057 -24.70166016 197.97485352 C-24.99851715 198.8117421 -25.29537415 199.64863068 -25.60122681 200.51087952 C-25.91071259 201.37482834 -26.22019836 202.23877716 -26.5390625 203.12890625 C-26.86538666 204.04461899 -27.19171082 204.96033173 -27.52792358 205.90379333 C-28.21072145 207.81757624 -28.89478603 209.73090765 -29.58007812 211.64379883 C-30.63293963 214.58467717 -31.67996984 217.52758881 -32.7265625 220.47070312 C-33.39288255 222.33606135 -34.05953692 224.20130019 -34.7265625 226.06640625 C-35.19686386 227.3896566 -35.19686386 227.3896566 -35.67666626 228.73963928 C-35.96721893 229.54815842 -36.25777161 230.35667755 -36.55712891 231.18969727 C-36.93993515 232.26031151 -36.93993515 232.26031151 -37.33047485 233.35255432 C-38 235 -38 235 -39 236 C-40.59610982 236.09333705 -42.19633428 236.11745372 -43.79516602 236.11352539 C-44.81614883 236.11344986 -45.83713165 236.11337433 -46.88905334 236.11329651 C-47.9994548 236.10813522 -49.10985626 236.10297394 -50.25390625 236.09765625 C-51.38448959 236.0962413 -52.51507294 236.09482635 -53.67991638 236.09336853 C-57.30747065 236.08775019 -60.93496424 236.07519458 -64.5625 236.0625 C-67.01497307 236.05748736 -69.4674471 236.05292405 -71.91992188 236.04882812 C-77.94663545 236.0377748 -83.97331339 236.02101884 -90 236 C-89.36542512 230.72931418 -87.69859944 226.2405901 -85.73828125 221.35546875 C-85.4003656 220.498927 -85.06244995 219.64238525 -84.71429443 218.7598877 C-83.97577248 216.88934272 -83.23464519 215.01982479 -82.49124146 213.1512146 C-80.43481532 207.98073371 -78.39866917 202.8022561 -76.359375 197.625 C-75.92565079 196.52540451 -75.49192657 195.42580902 -75.0450592 194.29289246 C-69.98426562 181.45014836 -65.02361104 168.5689985 -60.0625 155.6875 C-58.18920096 150.82666912 -56.31536732 145.96604443 -54.44140625 141.10546875 C-53.9817598 139.91310104 -53.52211334 138.72073334 -53.04853821 137.49223328 C-48.54843096 125.82191224 -44.02594769 114.16031844 -39.5 102.5 C-32.66083029 84.87672866 -25.83919754 67.24673602 -19.03115845 49.61141968 C-18.3267361 47.78687338 -17.62211038 45.9624056 -16.91748047 44.13793945 C-15.5863906 40.69111977 -14.25598086 37.24403834 -12.92578125 33.796875 C-12.5462178 32.81414612 -12.16665436 31.83141724 -11.77558899 30.81890869 C-7.81808018 20.5580196 -3.91522974 10.27747806 0 0 Z M25 58 C24.77164459 58.64161575 24.54328918 59.28323151 24.30801392 59.94429016 C22.10541926 66.13198812 19.90111155 72.31907313 17.69509315 78.50555134 C16.56229275 81.68250865 15.43024054 84.85972747 14.29931641 88.03735352 C8.97201217 103.00439989 3.58358607 117.94288861 -1.98471069 132.82185364 C-2.38114777 133.88377426 -2.77758484 134.94569489 -3.18603516 136.03979492 C-3.53735504 136.97675705 -3.88867493 137.91371918 -4.25064087 138.8790741 C-5.05552253 140.78224409 -5.05552253 140.78224409 -5 142 C15.79 142 36.58 142 58 142 C53.78799517 129.96570049 49.5625162 117.97186188 45.06640625 106.046875 C44.53812956 104.64063737 44.01005292 103.23432457 43.48216248 101.82794189 C42.12136417 98.20413188 40.75793331 94.58131847 39.39385986 90.95874023 C37.99072908 87.23093048 36.59021697 83.50213715 35.18945312 79.7734375 C32.46212894 72.51468573 29.73200971 65.25698974 27 58 C26.34 58 25.68 58 25 58 Z " fill="#EAEBEB" transform="translate(90,1701)"/>
<path d="M0 0 C0.9215538 0.00222061 1.8431076 0.00444122 2.79258728 0.00672913 C3.83359085 0.00680466 4.87459442 0.00688019 5.94714355 0.00695801 C7.07941879 0.01211929 8.21169403 0.01728058 9.37828064 0.02259827 C11.10744972 0.02472069 11.10744972 0.02472069 12.87155151 0.02688599 C16.57043503 0.03250446 20.26925903 0.0450601 23.96812439 0.05775452 C26.46877456 0.06276714 28.96942567 0.06733045 31.47007751 0.07142639 C37.61528027 0.0824799 43.76044808 0.099236 49.90562439 0.12025452 C50.57045586 1.7933947 50.57045586 1.7933947 51.24871826 3.50033569 C57.0685785 18.14577816 62.89243906 32.78962826 68.71812439 47.43275452 C69.43076132 49.22411772 69.43076132 49.22411772 70.15779495 51.05167007 C81.74557009 80.17830528 93.35935723 109.29418248 105.05406189 138.37806702 C105.54312452 139.59441267 106.03218716 140.81075832 106.53606987 142.06396294 C111.26691265 153.82861533 116.00153917 165.59173765 120.74224091 177.35242081 C122.49453986 181.7003258 124.2454101 186.04880536 125.99608231 190.39736557 C127.17641406 193.32746397 128.35893015 196.25667354 129.5415802 199.18583679 C130.27201213 200.99978554 131.00233427 202.81377851 131.73252869 204.62782288 C132.03838803 205.38341649 132.34424738 206.13901011 132.65937519 206.9175005 C136.55002824 216.59958025 140.1893257 226.36497047 143.90562439 236.12025452 C126.41562439 236.12025452 108.92562439 236.12025452 90.90562439 236.12025452 C89.09062439 231.43837952 87.27562439 226.75650452 85.40562439 221.93275452 C84.85197205 220.50552063 84.2983197 219.07828674 83.72789001 217.60780334 C79.4101154 206.46124484 75.16129167 195.29138112 70.90562439 184.12025452 C24.37562439 183.62525452 24.37562439 183.62525452 -23.09437561 183.12025452 C-23.58937561 186.09025452 -23.58937561 186.09025452 -24.09437561 189.12025452 C-24.60135498 190.76437998 -25.15474053 192.39488491 -25.75257874 194.00819397 C-26.0896283 194.92546768 -26.42667786 195.84274139 -26.77394104 196.78781128 C-27.13749695 197.75990036 -27.50105286 198.73198944 -27.87562561 199.73353577 C-28.24917175 200.74369247 -28.6227179 201.75384918 -29.00758362 202.7946167 C-29.79520209 204.92111459 -30.585418 207.04665202 -31.37806702 209.17127991 C-32.59576672 212.43648472 -33.8046832 215.70484093 -35.01234436 218.97377014 C-35.77875824 221.03971581 -36.54566794 223.10547762 -37.31312561 225.17103577 C-37.67668152 226.153246 -38.04023743 227.13545624 -38.41481018 228.14743042 C-38.75185974 229.04894333 -39.0889093 229.95045624 -39.43617249 230.87928772 C-39.73293884 231.67615494 -40.0297052 232.47302216 -40.33546448 233.29403687 C-41.09437561 235.12025452 -41.09437561 235.12025452 -42.09437561 236.12025452 C-43.69048543 236.21359157 -45.29070989 236.23770824 -46.88954163 236.23377991 C-47.91052444 236.23370438 -48.93150726 236.23362885 -49.98342896 236.23355103 C-51.09383041 236.22838974 -52.20423187 236.22322845 -53.34828186 236.21791077 C-54.4788652 236.21649582 -55.60944855 236.21508087 -56.77429199 236.21362305 C-60.40184626 236.20800471 -64.02933985 236.1954491 -67.65687561 236.18275452 C-70.10934868 236.17774188 -72.56182271 236.17317856 -75.01429749 236.16908264 C-81.04101106 236.15802932 -87.067689 236.14127335 -93.09437561 236.12025452 C-91.18123434 229.41625612 -88.97097418 222.91455284 -86.41859436 216.42884827 C-86.06126724 215.51124222 -85.70394012 214.59363617 -85.33578491 213.64822388 C-84.56128198 211.66054106 -83.78503533 209.67353698 -83.00721741 207.68714905 C-81.31267574 203.35946721 -79.62670824 199.02845976 -77.94010925 194.69767761 C-77.04249099 192.39304534 -76.14443211 190.08858464 -75.24595642 187.7842865 C-70.62889343 175.93975083 -66.05319936 164.07936474 -61.48100281 152.217453 C-54.20571373 133.34384451 -46.91281243 114.47717231 -39.59437561 95.62025452 C-32.44985018 77.21110877 -25.32845738 58.79310928 -18.21937561 40.37025452 C-17.74620911 39.14411438 -17.2730426 37.91797424 -16.78553772 36.65467834 C-15.43259377 33.14847406 -14.07982775 29.64220121 -12.72718811 26.13587952 C-12.33214081 25.11186035 -11.93709351 24.08784119 -11.53007507 23.03279114 C-11.15055695 22.04877319 -10.77103882 21.06475525 -10.38002014 20.05091858 C-9.82607574 18.61721924 -9.82607574 18.61721924 -9.26094055 17.15455627 C-8.41139059 14.94482851 -7.56868145 12.73246709 -6.73005676 10.51856995 C-6.28035522 9.33492859 -5.83065369 8.15128723 -5.36732483 6.93177795 C-4.95666779 5.84523926 -4.54601074 4.75870056 -4.12290955 3.63923645 C-2.70026707 0.15504349 -2.70026707 0.15504349 0 0 Z M22.90562439 57.12025452 C20.32182752 64.1199309 17.73915266 71.12002049 15.15775394 78.12058163 C13.95792764 81.37432287 12.75777263 84.62794192 11.55674744 87.88124084 C8.32947734 96.62384211 5.11350895 105.37051729 1.90562439 114.12025452 C1.45564087 115.34480347 1.00565735 116.56935242 0.54203796 117.83100891 C-0.73917304 121.32266153 -2.01357001 124.81672075 -3.28578186 128.31166077 C-3.67233444 129.36280563 -4.05888702 130.4139505 -4.45715332 131.49694824 C-4.98056053 132.94159203 -4.98056053 132.94159203 -5.51454163 134.41542053 C-5.8211824 135.25573318 -6.12782318 136.09604584 -6.4437561 136.96182251 C-7.23867816 139.22325213 -7.23867816 139.22325213 -7.09437561 142.12025452 C13.36562439 142.12025452 33.82562439 142.12025452 54.90562439 142.12025452 C53.11609169 136.15514551 51.36984527 130.43839584 49.21006775 124.63856506 C48.83384026 123.62429695 48.83384026 123.62429695 48.45001221 122.58953857 C47.63483528 120.39421926 46.81523162 118.20058354 45.99546814 116.00697327 C45.42136299 114.46392235 44.84752016 112.92077381 44.27392578 111.37753296 C42.77330903 107.34253519 41.26882542 103.30898978 39.76359558 99.27571106 C38.53526334 95.98232108 37.30975888 92.68788236 36.08438778 89.3933897 C34.61822436 85.45172055 33.15076029 81.51053616 31.68296814 77.56947327 C31.40494795 76.82284613 31.12692776 76.07621899 30.84048271 75.30696678 C30.05161384 73.18937443 29.26185973 71.07211457 28.4717865 68.95497131 C27.79919044 67.15155525 27.79919044 67.15155525 27.11300659 65.31170654 C26.07483223 62.56751862 25.00708928 59.83953663 23.90562439 57.12025452 C23.57562439 57.12025452 23.24562439 57.12025452 22.90562439 57.12025452 Z " fill="#EAEBEB" transform="translate(500.09437561035156,1700.8797454833984)"/>
<path d="M0 0 C141.14745509 0 141.14745509 0 161.4921875 19.359375 C165.2112101 23.27535518 168.22176367 27.37689807 171 32 C171.46019531 32.75539063 171.92039062 33.51078125 172.39453125 34.2890625 C182.1983016 52.00101014 183.287032 76.53937199 178.4375 95.9375 C172.90951837 113.80746838 162.49080918 128.2647806 146.125 137.6484375 C116.67616899 153.04897412 79.49637553 148 48 148 C48 177.04 48 206.08 48 236 C32.16 236 16.32 236 0 236 C0 158.12 0 80.24 0 0 Z M48 41 C48 62.78 48 84.56 48 107 C57.343125 107.061875 57.343125 107.061875 66.875 107.125 C69.76161377 107.15231201 69.76161377 107.15231201 72.70654297 107.18017578 C99.95770189 107.68886541 99.95770189 107.68886541 123.08984375 95.13671875 C128.50495427 89.07932518 130.93010065 81.36671674 131.03515625 73.30078125 C130.50111021 63.96148836 127.44308955 56.63951163 121.04296875 49.7890625 C111.41366019 41.35651313 99.0824295 40.68565614 86.8671875 40.8046875 C85.87468994 40.80670166 84.88219238 40.80871582 83.85961914 40.81079102 C80.19803153 40.82115268 76.53651048 40.84907415 72.875 40.875 C64.66625 40.91625 56.4575 40.9575 48 41 Z " fill="#EAEBEB" transform="translate(1653,1701)"/>
<path d="M0 0 C15.31910781 12.84280195 25.28537203 28.04861199 30.9375 47.25 C30.9375 48.57 30.9375 49.89 30.9375 51.25 C21.77616221 53.95906472 12.59144475 56.38702522 3.28369141 58.54248047 C1.27754606 59.00811292 -0.72645168 59.48233183 -2.73046875 59.95703125 C-4.64666016 60.40369141 -4.64666016 60.40369141 -6.6015625 60.859375 C-7.74834473 61.12717773 -8.89512695 61.39498047 -10.07666016 61.67089844 C-13.0625 62.25 -13.0625 62.25 -17.0625 62.25 C-17.4646875 60.92548828 -17.4646875 60.92548828 -17.875 59.57421875 C-21.86181792 47.36458888 -27.71322386 37.04894234 -39.0625 30.25 C-52.87713163 23.56044319 -68.26147354 21.55414488 -83.25 25.875 C-88.97167262 27.98181744 -94.0933157 30.72624108 -99.0625 34.25 C-99.75988281 34.73984375 -100.45726562 35.2296875 -101.17578125 35.734375 C-114.31550066 46.04203838 -119.44368371 63.36380734 -121.7265625 79.2578125 C-124.69716451 105.7168955 -125.41863535 140.55984227 -108.75 163.0625 C-98.92009784 174.74869269 -86.65125905 181.51411251 -71.375 183 C-57.45192997 183.76451916 -45.21917189 180.05693975 -34.125 171.5 C-23.7049116 161.60485308 -18.88077055 146.66727474 -15.0625 133.25 C-6.08088229 135.60014452 2.79927954 138.26458901 11.66601562 141.01123047 C13.28002963 141.50878613 14.89563585 142.00120258 16.51269531 142.48876953 C18.86898705 143.19962993 21.21994324 143.92608113 23.5703125 144.65625 C24.29622589 144.87196655 25.02213928 145.08768311 25.77005005 145.30993652 C27.78564453 145.94726562 27.78564453 145.94726562 30.9375 147.25 C32.32408777 151.4097633 30.91608635 154.37971677 29.5625 158.375 C29.29429443 159.16962646 29.02608887 159.96425293 28.74975586 160.78295898 C24.46165306 172.95001489 18.47257052 184.52040493 9.9375 194.25 C9.33550781 194.99378906 8.73351563 195.73757813 8.11328125 196.50390625 C-6.13446056 213.58385637 -28.39361666 222.62786745 -50.0625 225.25 C-55.27142196 225.56621644 -60.47043034 225.63953009 -65.6875 225.625 C-66.39049225 225.62478851 -67.0934845 225.62457703 -67.81777954 225.62435913 C-79.00266791 225.59083386 -89.37259434 224.70018119 -100.0625 221.25 C-101.20847656 220.88777344 -102.35445312 220.52554687 -103.53515625 220.15234375 C-130.95332348 210.51186779 -150.52291355 190.0861128 -163.06835938 164.40185547 C-170.02402334 149.34605434 -173.17228293 132.12601922 -173.265625 115.60546875 C-173.27132507 114.79620438 -173.27702515 113.98694 -173.28289795 113.15315247 C-173.29229274 111.44464398 -173.29885979 109.73611782 -173.30273438 108.02758789 C-173.31233132 105.48223797 -173.34336164 102.93773551 -173.375 100.39257812 C-173.58984832 67.18785149 -164.32677417 35.59055731 -141.0625 11.25 C-140.46179688 10.57453125 -139.86109375 9.8990625 -139.2421875 9.203125 C-106.07193044 -26.6954216 -37.89333176 -29.33486898 0 0 Z " fill="#EAEBEB" transform="translate(1070.0625,1715.75)"/>
<path d="M0 0 C17.49 0 34.98 0 53 0 C64.36860095 32.23185765 75.32380916 64.59352384 86.21557617 96.98876953 C87.41568053 100.55767517 88.61597777 104.12651587 89.81640625 107.6953125 C90.25589757 109.00207632 90.25589757 109.00207632 90.7042675 110.33523941 C97.40269586 130.2462956 104.19296729 150.12585254 111 170 C113.17520646 166.7371903 114.28005599 163.52402077 115.4765625 159.83496094 C115.71845149 159.10156494 115.96034048 158.36816895 116.20955944 157.61254883 C117.01904196 155.15455974 117.82198484 152.69448384 118.625 150.234375 C119.20144556 148.47970568 119.77830342 146.72517176 120.35554504 144.97076416 C121.91735419 140.2202632 123.47361461 135.46796087 125.02893448 130.71533203 C126.64837383 125.77006802 128.27297486 120.82650078 129.8972168 115.8828125 C132.24517736 108.73484257 134.59152215 101.58634603 136.93576717 94.43715668 C141.18405881 81.48124568 145.44260579 68.52873384 149.70703125 55.578125 C150.01118832 54.65439842 150.31534538 53.73067184 150.62871933 52.77895355 C151.82394515 49.14911225 153.01921545 45.5192856 154.21458626 41.88949203 C157.25532574 32.65601819 160.29380847 23.4218022 163.33203125 14.1875 C164.87246094 9.505625 166.41289062 4.82375 168 0 C185.16 0 202.32 0 220 0 C218.13007488 6.23308374 216.2404306 12.38752946 214.09375 18.51953125 C213.81718567 19.31439941 213.54062134 20.10926758 213.25567627 20.92822266 C212.33971561 23.55722987 211.42008893 26.18493495 210.5 28.8125 C210.17664673 29.73815765 209.85329346 30.66381531 209.5201416 31.61752319 C203.62270215 48.49539751 197.59951825 65.32728903 191.54943848 82.15093994 C185.38096618 99.30597164 179.28721713 116.48584949 173.25 133.6875 C166.9671497 151.58830568 160.63768503 169.47115416 154.24291992 187.33227539 C148.44238538 203.53638129 142.71711106 219.76622786 137 236 C119.51 236 102.02 236 84 236 C81.06753846 228.96209231 78.21308861 222.08372439 75.7578125 214.8984375 C75.47327713 214.07668533 75.18874176 213.25493317 74.89558411 212.40827942 C74.28651452 210.64864107 73.67900825 208.88846092 73.07296753 207.1277771 C71.4156571 202.31515848 69.74451672 197.50734216 68.07421875 192.69921875 C67.73187698 191.71309097 67.38953522 190.7269632 67.03681946 189.71095276 C63.72501672 180.18346308 60.34088096 170.68259099 56.9375 161.1875 C55.69493288 157.71888586 54.45276156 154.25013024 53.2109375 150.78125 C52.88558517 149.87244583 52.56023285 148.96364166 52.22502136 148.02729797 C47.71821975 135.4290277 43.25028444 122.81691634 38.77837372 110.20623016 C36.88285646 104.8609608 34.98702361 99.51580334 33.09122086 94.17063522 C32.6246668 92.85519091 32.15812167 91.53974343 31.69158554 90.22429276 C27.56822632 78.59822408 23.43851845 66.97441994 19.30465698 55.3520813 C18.32929081 52.6097096 17.35417913 49.86724755 16.37915039 47.12475586 C13.72401104 39.65695266 11.06809607 32.18943265 8.4070282 24.72373962 C7.3482352 21.75256614 6.29061138 18.78097739 5.23324585 15.80929565 C4.75028228 14.45290914 4.26675553 13.096723 3.78262329 11.74075317 C3.13493231 9.9266263 2.48927415 8.11177403 1.84375 6.296875 C1.48474609 5.28979492 1.12574219 4.28271484 0.75585938 3.24511719 C0 1 0 1 0 0 Z " fill="#EAEBEB" transform="translate(212,1701)"/>
</svg>
